<!-- <svg width="15" height="17" viewBox="0 0 15 17" fill="none" xmlns="http://www.w3.org/2000/svg">
<path d="M2.5 3.65152V16H12.5V3.65152M0 3.65152H5.83333M15 3.65152H9.16667M5.83333 3.65152C5.83333 3.65152 5.5 1 5.83333 1C6.16667 1 8.66667 1 9.16667 1C9.66667 1 9.16667 3.65152 9.16667 3.65152M5.83333 3.65152H9.16667M7.5 5.16667V14.2576M5 5.16667V14.2576M10 5.16667V14.2576" stroke="#E2001A"/>
</svg> -->


<svg width="18" height="20" viewBox="0 0 18 20" fill="none" xmlns="http://www.w3.org/2000/svg">
<path d="M3 3.85859V19.5H15V3.85859M0 3.85859H7M18 3.85859H11M7 3.85859C7 3.85859 6.6 0.5 7 0.5C7.4 0.5 10.4 0.5 11 0.5C11.6 0.5 11 3.85859 11 3.85859M7 3.85859H11M9 5.77778V17.2929M6 5.77778V17.2929M12 5.77778V17.2929" stroke="#E2001A"/>
</svg>
