<svg width="17" height="20" viewBox="0 0 17 20" fill="none" xmlns="http://www.w3.org/2000/svg">
<path fill-rule="evenodd" clip-rule="evenodd" d="M17 6.76692C16.998 6.6347 16.94 6.50859 16.8386 6.41604L10.087 0.150376C9.9877 0.0559327 9.85234 0.00188323 9.71044 0H2.95886C1.32473 0 0 1.2343 0 2.75689V17.2431C0 18.7657 1.32473 20 2.95886 20H14.0411C15.6753 20 17 18.7657 17 17.2431V6.76692ZM10.3015 1.7542L15.1164 6.24042H12.4534C11.2649 6.24042 10.3015 5.34274 10.3015 4.23541V1.7542ZM14.0416 18.9975C15.0815 18.9975 15.9245 18.212 15.9245 17.2431V7.24306H12.4545C10.6718 7.24306 9.22668 5.89655 9.22668 4.23555V1.00246H2.95927C1.91937 1.00246 1.07636 1.78793 1.07636 2.75685V17.2431C1.07636 18.212 1.91937 18.9975 2.95927 18.9975H14.0416Z" fill="#E2001A"/>
<path d="M4 9.56445L13 9.56445" stroke="#E2001A"/>
<path d="M4 12.1738L13 12.1738" stroke="#E2001A"/>
<path d="M4 14.7832L13 14.7832" stroke="#E2001A"/>
</svg>
 